<svg version="1" xmlns="http://www.w3.org/2000/svg" width="896" height="896" viewBox="0 0 672.000000 672.000000"><path d="M331.6 99.2c-1.9 2.7-2 5-.5 6.5.9.9 1.2 20.4 1.3 73l.1 71.8 2.5.1c1.4.1 2.9 0 3.5-.2.7-.3 1-23.6.9-71.2 0-57.2.2-71.1 1.3-72.9 1.8-3.1 1.6-5-.7-7.3-2.7-2.7-6.5-2.6-8.4.2zm7.2 1c1.9 1.9 1.4 4.4-1.3 5.6-1.9.9-2.7.8-4-.4-1.7-1.7-1.8-2.5-.9-4.8.7-1.9 4.5-2.1 6.2-.4z"/><path d="M294 125.5c-1.9 2-1.9 2.5-.8 7.1 1 3.8 1.3 21 1.2 73.2l-.1 68.2 2.6.1c10.4.3 76.2.1 76.6-.2.2-.3.5-31.9.6-70.3.1-46.5.5-70.8 1.2-72.7 1.6-4.2-.6-7.9-4.8-7.9-1.7 0-3.6.5-4.3 1.2-1.4 1.4-1.6 7.4-.3 8.2.6.4.8 28 .7 67.4l-.2 66.7-31.7.1c-21 0-32-.3-32.4-1-1.3-2-.6-131.1.6-133.4 3.3-6.1-4.2-11.7-8.9-6.7zm79.5 1.7c1.4 4.1-4.4 6.7-6.5 2.9-1.3-2.5-1.3-2.7.5-4.4 1.9-1.9 5.2-1.1 6 1.5zm-73.1-.6c2.3 2.2 2 4.3-.9 5.6-1.9.8-2.8.8-4-.2-2-1.7-1.9-4.7.3-5.9 2.3-1.4 2.8-1.4 4.6.5z"/><path d="M403.6 153.9c-1.6 1.8-1.8 6.2-.3 7.7.4.4.7 29.9.7 65.5v64.8l-29.2.3c-28.7.3-29.4.4-34 2.7-8.8 4.5-7.5 5.1 10.5 5.2 38.9.1 58.8-.1 59.5-.5.4-.2.7-30.9.6-68.3 0-54.1.2-68.3 1.3-70.5 3.1-6.3-4.5-12-9.1-6.9zm7.4 2c.7 1.5.5 2.4-.8 4.1-1.6 1.9-2.2 2.1-4 1.1-2.1-1.1-3-5-1.5-6.4 1.3-1.4 5.3-.6 6.3 1.2zM261.3 156c-2.6 1.1-4 5.6-2.5 8 .7 1.2 1.1 17.8 1.1 51.7v50l-13.7-.1-13.7-.1-.1-35.5c0-27.3.2-36.2 1.3-38.7.8-2.1.9-3.4.3-3.8-.6-.4-.8-1-.5-1.5.3-.4-.9-1.3-2.7-1.9-4.2-1.5-7.8.7-7.8 4.9 0 1.6.5 3.2 1 3.5.6.4 1 15.2 1 41.1V274l3.3.1c10.1.3 37.7 0 38.4-.4.4-.3.8-24.3.7-53.4-.1-42 .2-53.3 1.3-55.5 1.6-3.2.4-7.1-2.6-8.7-2.3-1.3-1.9-1.2-4.8-.1zm4.3 1.8c1.7 1.1 2.2 3.5 1.2 5.4-1 2.1-3.9 2.3-5.6.6-3.2-3.2.7-8.5 4.4-6zm-33.9 29.8c1.9 3-.4 5.9-3.9 5.1-3.5-.9-4.2-3.3-1.7-5.8 2.3-2.3 3.7-2.1 5.6.7zM444.1 187.6c-2.5 3.1-2.5 3.4-.8 6.7 1 1.9 1.3 11.4 1.2 41v38.5l3.8.4 3.7.4v-39.8c0-25.4.4-39.9 1-40.3 1.8-1.1 1.1-5.4-1.2-7.5-2.9-2.7-5.2-2.5-7.7.6zm6.9.9c1 1.2 1 2.1.2 4-1.6 3.4-5.2 3.1-6.4-.5-1.4-3.9 3.6-6.7 6.2-3.5z"/><path d="M485 211.9c-3.2.9-4.9 5.4-3.2 8.1.9 1.5 1.2 11.3 1.2 37v35l-18.2.1c-21.2.1-21.8.1-27.5 3.5-4.4 2.5-5.5 4.4-2.8 4.4.8 0 7.8.1 15.5.1s20-.1 27.3-.1h13.2v-38.8c-.1-29.3.2-39.2 1.2-40.7 1.4-2.3 1.4-3.4.2-5.7-1.3-2.5-4-3.6-6.9-2.9zm3.6 1.9c2 1.3 2.5 4.8.9 6.2-2.4 2-6.5.4-6.5-2.5 0-3.1 3.2-5.3 5.6-3.7zM194.2 215.6c-2.6 1.8-3.3 4.7-1.8 7.6.8 1.6 1.2 12.9 1.1 39.1 0 20.3.3 37.1.7 37.3.4.3 11.9.5 25.5.5 22.5 0 25.2.2 28.8 1.9 10.8 5.2 8.8 23.3-2.9 25.6-1.1.2-13.2.4-26.8.4H194v52.9c0 46.7-.2 53.2-1.6 56-1.5 3.1-1.5 3.4.3 5.9 2.5 3.3 5.8 3.7 8.4 1.1 1.7-1.7 2-2.8 1.4-5.3-.8-3.1-1.4-99-.7-101.3.3-.8 6.2-1.2 21.5-1.2 22.6 0 23.9-.1 28.4-2.4 6.5-3.4 10.8-9.7 11.8-17.4.5-4.2-2-14.3-3.5-14.3-.6 0-1-.5-1-1.1 0-1.2-3.7-4.4-8-6.9-2-1.2-7.5-1.5-26.2-1.8l-23.8-.3v-33.5c0-24.4.3-33.9 1.2-35.4 3-4.7-3.4-10.6-8-7.4zm5.6 1.7c1.7 1.1 1.5 5.4-.4 6.1-4.4 1.7-7.4-1.5-4.9-5.2 1.5-2 3-2.3 5.3-.9zm0 219.9c1.6 1.6 1.5 4.3-.3 5.8-1.2 1-2 .9-3.9-.3-2.4-1.6-2.8-3.1-1.3-5.5 1-1.5 3.9-1.6 5.5 0zM293.9 306.4v54.1l.1 12.5h7.8l-.2-40.8-.1-40.7-3.7-.3-3.8-.3-.1 15.5zM105 295.9v4.1l22.8.1c12.5.1 23.9 0 25.4-.1 3.5-.2 7.9 2.2 11.2 6 5.1 6.1 2.6 16.9-4.8 20.4-2.7 1.3-7.7 1.6-29 1.6l-25.6.1V372h8v-35.9l22.8.2c20.2.2 23.1.4 25.6 2 4.5 3 5.6 7.2 5.6 21.2V372h8v-12.8c-.1-13.7-1-17.9-5.4-23.7-2.3-3-2.5-3.7-1.4-5.5.7-1.1 1.6-2 1.9-2 1.2 0 4.9-9.9 4.9-13.2 0-8.1-4.5-16-11.3-19.9-4.1-2.4-4.7-2.4-31.4-2.7l-27.3-.3v4zM523.7 293.4c-2 .8-4.5 2-5.5 2.7-3 2.5-4.4 3.9-3.5 3.9 16.2.5 63.8-.2 64.3-1 .4-.6.5-2.1.4-3.3-.1-1.2-.3-2.5-.3-3-.1-.4-11.7-.7-25.8-.7-19 .1-26.8.4-29.6 1.4zM334.4 329.9c2 2.3 6.8 5 10.1 5.7 1.1.3 11 .5 22 .5s21.6.2 23.6.5c9.1 1.4 14 12.3 9.2 20.6-3.9 6.7-5.1 7-36.6 7.2l-28.2.2-.1 93c-.1 81.9-.3 93.3-1.7 95.9-1.3 2.6-1.3 3.4-.1 5.6 1.7 3.4 5.2 4.3 8.3 2.3 2.2-1.5 2.3-2 1.6-6.8-.7-5.3-1.4-176.4-.7-180.2.4-2.1.7-2.2 25.2-2.2 18.8-.1 25.7-.5 28.2-1.5 15.1-6.3 18.8-25.7 6.9-36.5-6.2-5.7-6.3-5.7-39.1-6l-30.4-.4 1.8 2.1zm6 224.7c1.2 1.2 1.3 2 .5 3.5-1.6 3.1-4 3.5-6 1-3.4-4.1 1.7-8.3 5.5-4.5zM427.9 328.4c-.3.3-.4 6.6-.3 14.1.3 15.4 1.9 20.5 7.9 25.1 5.2 3.9 8.7 4.5 28.8 4.5 13.4.1 18.7.4 18.8 1.2 0 .7.2 14.5.3 30.7.1 23.3-.1 30.1-1.2 32.4-1 2.1-1.1 3.5-.3 5.2 3.3 7.3 12.7 2.9 10.2-4.9-.6-1.9-1.1-17.7-1.3-37.7l-.3-34.5-23.5-.5c-17-.4-24.2-.9-25.8-1.8-4-2.3-6.1-8.6-5.9-17.7l.2-8 26.2-.1c14.5-.1 27-.4 27.8-.8 1.1-.4 1.5-1.5 1.2-3.8l-.3-3.3-31-.3c-17.1-.1-31.2 0-31.5.2zm61.9 108.8c1.6 1.6 1.5 3.3-.3 5.1-1.9 1.9-5.2 1.1-6-1.5-1.2-3.7 3.5-6.4 6.3-3.6zM509.9 330.7c-.1 1.6-.1 7.8-.1 13.9.1 9.3.5 12 2.2 15.7 2.2 4.6 6.1 8.2 11.2 10.4 3.5 1.5 55.7 1.8 55.9.3.1-.5.1-1.9.1-3s0-2.5-.1-3c-.1-.6-9.4-1-25.6-1-35.7 0-35.6.1-36.1-21.4-.1-7.2-.3-13.4-.3-13.9-.1-.4-1.7-.7-3.6-.7-3.1 0-3.5.3-3.6 2.7z"/><path d="M226.9 392.1c-.6.3-.9 15.2-.9 35.7 0 22.1-.4 35.3-1 35.7-1.7 1-1.1 6.1.8 7.8 5.1 4.7 12.3-1.7 8.5-7.6-.4-.6-.9-15.5-.9-33l-.1-31.7H295v32.2c0 17.8.1 46.3.1 63.5.1 22-.3 31.8-1.1 33.3-2.4 4.6 1.5 9.8 6.4 8.6 3.2-.8 5-5 3.4-7.9-.9-1.6-1.2-19.3-1.4-69.2-.1-36.9-.2-67.2-.3-67.5-.1-.7-74.1-.6-75.2.1zm5.7 73.5c2 3-.2 5.8-3.9 4.9-2.1-.6-2.7-1.3-2.7-3.5 0-4.3 4.1-5.2 6.6-1.4zm68 62.2c.6.4 1.4 1.7 1.8 2.9.9 3-3.4 5.4-5.9 3.3-3.6-3 .2-8.8 4.1-6.2zM372.9 393.5c0 1.1-.2 31.5-.3 67.5-.2 45.5-.6 66.3-1.4 68.2-.9 2.2-.8 3.1.9 5.2 2.3 3 4.5 3.3 7.7 1 2.3-1.6 3.1-6.7 1.3-7.9-.6-.3-.9-24.9-.8-64.3l.2-63.7h32.7c21.2 0 32.8.4 32.8 1 .7 16.8.6 62.6-.1 63.1-1.8 1.1-.9 6.3 1.3 7.8 3.2 2.3 5.4 2 7.7-1 1.8-2.3 1.9-2.9.7-5.7-1-2.4-1.3-11.4-1.4-36.7 0-18.4-.1-34.2-.1-35-.1-1.3-5.3-1.5-40.6-1.5-39.8 0-40.5 0-40.6 2zm80.7 71.6c3.1 3.4-2.1 8-5.4 4.7-2.4-2.4-.9-6.5 2.3-6.5.8 0 2.2.8 3.1 1.8zM378.1 528c3.4 1.9 1.8 7-2.3 7-2.3 0-3.8-3-2.7-5.8.9-2.4 2.1-2.7 5-1.2z"/><path d="M258 455.8c0 25.5-.3 36.8-1.1 38.1-1.7 2.6-.4 6.6 2.6 7.9 3 1.4 4.9.8 6.9-2.2 1.6-2.5 1.6-4 0-7.1-.7-1.3-1-15.3-.9-37.7v-35.7l-3.7.2-3.8.2v36.3zm7.4 41.5c-1.2 3.3-4.1 3.9-6.4 1.5l-2.1-2.3 2.7-2.3c2.6-2.3 2.7-2.3 4.6-.5 1.1 1.2 1.6 2.6 1.2 3.6zM409.9 421.3c0 1.2-.1 18.1-.1 37.5-.1 19.4-.5 35.5-.9 35.8-1.9 1.2-.9 6.4 1.6 8 2.9 1.9 5.8 1.2 7.8-2 1.4-2 1.4-2.7.2-5-1.1-2.1-1.4-9.2-1.4-33.9v-36.9l-.1-5.6h-3.5c-2.9 0-3.5.4-3.6 2.1zm6.5 74.6c1.5 1.7 1.5 2-.2 4.1-3.4 4.2-7.6.8-5.6-4.4.8-2.2 3.7-2 5.8.3z"/></svg>