<?xml version="1.0" encoding="UTF-8" standalone="no"?>
<!-- Created with Inkscape (http://www.inkscape.org/) -->

<svg
   xmlns:dc="http://purl.org/dc/elements/1.1/"
   xmlns:cc="http://creativecommons.org/ns#"
   xmlns:rdf="http://www.w3.org/1999/02/22-rdf-syntax-ns#"
   xmlns:svg="http://www.w3.org/2000/svg"
   xmlns="http://www.w3.org/2000/svg"
   xmlns:sodipodi="http://sodipodi.sourceforge.net/DTD/sodipodi-0.dtd"
   xmlns:inkscape="http://www.inkscape.org/namespaces/inkscape"
   version="1.1"
   id="svg834"
   xml:space="preserve"
   width="336"
   height="288.112"
   viewBox="0 0 336 288.112"
   sodipodi:docname="logo (1).svg"
   inkscape:version="0.92.4 5da689c313, 2019-01-14"><metadata
     id="metadata840"><rdf:RDF><cc:Work
         rdf:about=""><dc:format>image/svg+xml</dc:format><dc:type
           rdf:resource="http://purl.org/dc/dcmitype/StillImage" /><dc:title></dc:title></cc:Work></rdf:RDF></metadata><defs
     id="defs838"><clipPath
       clipPathUnits="userSpaceOnUse"
       id="clipPath850"><path
         d="m 110.212,94.104 h 2.947 v 30.783 h -2.947 z"
         id="path848"
         inkscape:connector-curvature="0" /></clipPath><linearGradient
       x1="0"
       y1="0"
       x2="1"
       y2="0"
       gradientUnits="userSpaceOnUse"
       gradientTransform="matrix(96.335289,-125.05643,-125.05643,-96.335289,83.825195,145.66309)"
       spreadMethod="pad"
       id="linearGradient860"><stop
         style="stop-opacity:1;stop-color:#27a9e0"
         offset="0"
         id="stop856" /><stop
         style="stop-opacity:1;stop-color:#1ca258"
         offset="1"
         id="stop858" /></linearGradient><clipPath
       clipPathUnits="userSpaceOnUse"
       id="clipPath870"><path
         d="m 180.328,152.514 c 0,-0.692 0.323,-1.286 0.81,-1.7 v 0 -26.275 l -12.702,-0.024 c -1.22,0 -2.336,-0.212 -3.315,-0.619 v 0 c -1,-0.409 -1.828,-0.957 -2.54,-1.686 v 0 c -0.222,-0.215 -0.419,-0.445 -0.609,-0.697 v 0 l 22.031,0.03 v 3.003 h -0.054 v 26.268 c 0.481,0.414 0.805,1.013 0.805,1.7 v 0 c 0,1.248 -0.994,2.253 -2.215,2.253 v 0 c -1.22,0 -2.211,-1.005 -2.211,-2.253 m 0.783,0.102 c 0,0.803 0.639,1.459 1.428,1.459 v 0 c 0.793,0 1.436,-0.656 1.436,-1.459 v 0 c 0,-0.806 -0.643,-1.462 -1.436,-1.462 v 0 c -0.789,0 -1.428,0.656 -1.428,1.462"
         id="path868"
         inkscape:connector-curvature="0" /></clipPath><linearGradient
       x1="0"
       y1="0"
       x2="1"
       y2="0"
       gradientUnits="userSpaceOnUse"
       gradientTransform="matrix(96.351402,-125.07735,-125.07735,-96.351402,136.01953,185.87988)"
       spreadMethod="pad"
       id="linearGradient880"><stop
         style="stop-opacity:1;stop-color:#27a9e0"
         offset="0"
         id="stop876" /><stop
         style="stop-opacity:1;stop-color:#1ca258"
         offset="1"
         id="stop878" /></linearGradient><clipPath
       clipPathUnits="userSpaceOnUse"
       id="clipPath890"><path
         d="m 39.436,124.515 v -3.002 h 18.078 c 1.402,0 2.669,-0.531 3.653,-1.538 v 0 c 0.993,-1.014 1.518,-2.307 1.518,-3.722 v 0 c 0,-1.424 -0.525,-2.709 -1.512,-3.721 v 0 c -0.99,-1.008 -2.257,-1.544 -3.659,-1.544 v 0 l -18.078,0.01 V 94.479 h 2.949 v 13.512 h 15.129 c 1.511,0 2.757,-0.494 3.722,-1.457 v 0 c 0.949,-0.968 1.449,-2.279 1.449,-3.802 v 0 -8.253 h 2.942 v 8.253 c 0,1.031 -0.179,2.038 -0.527,2.992 v 0 c -0.337,0.941 -0.852,1.804 -1.514,2.56 v 0 l -1.104,1.26 1.108,1.257 c 1.367,1.554 2.037,3.336 2.037,5.452 v 0 c 0,1.118 -0.212,2.194 -0.632,3.193 v 0 c -0.429,1.011 -1.014,1.902 -1.747,2.644 v 0 c -0.717,0.737 -1.594,1.335 -2.598,1.777 v 0 c -0.978,0.426 -2.032,0.648 -3.136,0.648 v 0 z"
         id="path888"
         inkscape:connector-curvature="0" /></clipPath><linearGradient
       x1="0"
       y1="0"
       x2="1"
       y2="0"
       gradientUnits="userSpaceOnUse"
       gradientTransform="matrix(96.343864,-125.06757,-125.06757,-96.343864,45.391602,116.05859)"
       spreadMethod="pad"
       id="linearGradient900"><stop
         style="stop-opacity:1;stop-color:#27a9e0"
         offset="0"
         id="stop896" /><stop
         style="stop-opacity:1;stop-color:#1ca258"
         offset="1"
         id="stop898" /></linearGradient><clipPath
       clipPathUnits="userSpaceOnUse"
       id="clipPath910"><path
         d="m 191.11,111.027 v -8.263 c 0,-1.224 0.2,-2.363 0.603,-3.381 v 0 c 0.391,-1 0.949,-1.861 1.641,-2.579 v 0 c 0.725,-0.727 1.557,-1.277 2.549,-1.684 v 0 c 0.996,-0.406 2.108,-0.609 3.318,-0.609 v 0 h 18.075 v 2.993 h -18.075 c -3.237,0 -5.168,1.968 -5.168,5.26 v 0 8.263 z"
         id="path908"
         inkscape:connector-curvature="0" /></clipPath><linearGradient
       x1="0"
       y1="0"
       x2="1"
       y2="0"
       gradientUnits="userSpaceOnUse"
       gradientTransform="matrix(96.340118,-125.0627,-125.0627,-96.340118,136.60742,186.3208)"
       spreadMethod="pad"
       id="linearGradient920"><stop
         style="stop-opacity:1;stop-color:#27a9e0"
         offset="0"
         id="stop916" /><stop
         style="stop-opacity:1;stop-color:#1ca258"
         offset="1"
         id="stop918" /></linearGradient><clipPath
       clipPathUnits="userSpaceOnUse"
       id="clipPath930"><path
         d="m 199.221,124.546 c -1.21,0 -2.322,-0.213 -3.318,-0.62 v 0 c -0.984,-0.401 -1.819,-0.948 -2.551,-1.687 v 0 c -0.206,-0.212 -0.404,-0.442 -0.592,-0.696 v 0 h 24.536 v 3.003 z"
         id="path928"
         inkscape:connector-curvature="0" /></clipPath><linearGradient
       x1="0"
       y1="0"
       x2="1"
       y2="0"
       gradientUnits="userSpaceOnUse"
       gradientTransform="matrix(96.344147,-125.06793,-125.06793,-96.344147,148.95312,195.83691)"
       spreadMethod="pad"
       id="linearGradient940"><stop
         style="stop-opacity:1;stop-color:#27a9e0"
         offset="0"
         id="stop936" /><stop
         style="stop-opacity:1;stop-color:#1ca258"
         offset="1"
         id="stop938" /></linearGradient><clipPath
       clipPathUnits="userSpaceOnUse"
       id="clipPath950"><path
         d="m 71.78,151.413 c 0,-0.694 0.325,-1.29 0.806,-1.701 v 0 l 0.004,-28.199 h 0.14 2.666 15.41 c 1.402,0 2.668,-0.531 3.652,-1.538 v 0 c 0.992,-1.014 1.514,-2.307 1.514,-3.722 v 0 c 0,-1.424 -0.517,-2.709 -1.503,-3.721 v 0 c -1.002,-1.008 -2.266,-1.544 -3.663,-1.544 v 0 l -18.076,0.01 v -40.1 c -0.563,-0.414 -0.95,-1.044 -0.95,-1.799 v 0 c 0,-1.241 0.991,-2.25 2.213,-2.25 v 0 c 1.218,0 2.214,1.009 2.214,2.25 v 0 c 0,0.629 -0.256,1.193 -0.663,1.6 v 0 l 0.137,37.292 h 15.125 c 1.131,0 2.188,0.217 3.149,0.64 v 0 c 0.987,0.434 1.851,1.034 2.587,1.781 v 0 c 0.733,0.748 1.32,1.633 1.746,2.631 v 0 c 0.414,0.975 0.631,2.058 0.631,3.21 v 0 c 0,1.121 -0.217,2.199 -0.631,3.193 v 0 c -0.431,1.017 -1.019,1.902 -1.746,2.644 v 0 c -0.724,0.739 -1.597,1.335 -2.603,1.777 v 0 c -0.98,0.426 -2.032,0.648 -3.133,0.648 v 0 h -15.41 v 25.197 c 0.486,0.411 0.811,1.007 0.811,1.701 v 0 c 0,1.245 -0.996,2.251 -2.214,2.251 v 0 c -1.222,0 -2.213,-1.006 -2.213,-2.251 m 0.778,0 c 0,0.807 0.644,1.459 1.435,1.459 v 0 c 0.793,0 1.436,-0.652 1.436,-1.459 v 0 c 0,-0.806 -0.643,-1.462 -1.436,-1.462 v 0 c -0.791,0 -1.435,0.656 -1.435,1.462 m 0.024,-82.328 c 0,0.801 0.644,1.456 1.437,1.456 v 0 c 0.789,0 1.429,-0.655 1.429,-1.456 v 0 c 0,-0.808 -0.64,-1.461 -1.429,-1.461 v 0 c -0.793,0 -1.437,0.653 -1.437,1.461"
         id="path948"
         inkscape:connector-curvature="0" /></clipPath><linearGradient
       x1="0"
       y1="0"
       x2="1"
       y2="0"
       gradientUnits="userSpaceOnUse"
       gradientTransform="matrix(96.340836,-125.06363,-125.06363,-96.340836,60.536133,127.72461)"
       spreadMethod="pad"
       id="linearGradient960"><stop
         style="stop-opacity:1;stop-color:#27a9e0"
         offset="0"
         id="stop956" /><stop
         style="stop-opacity:1;stop-color:#1ca258"
         offset="1"
         id="stop958" /></linearGradient><clipPath
       clipPathUnits="userSpaceOnUse"
       id="clipPath970"><path
         d="M 96.777,76.785 V 49.507 c -0.478,-0.414 -0.805,-1.012 -0.805,-1.705 v 0 c 0,-1.245 0.988,-2.249 2.208,-2.249 v 0 c 1.227,0 2.214,1.004 2.214,2.249 v 0 c 0,0.691 -0.325,1.287 -0.805,1.698 v 0 27.285 z M 96.751,47.802 c 0,0.806 0.638,1.459 1.432,1.459 v 0 c 0.795,0 1.434,-0.653 1.434,-1.459 v 0 c 0,-0.806 -0.639,-1.458 -1.434,-1.458 v 0 c -0.794,0 -1.432,0.652 -1.432,1.458"
         id="path968"
         inkscape:connector-curvature="0" /></clipPath><linearGradient
       x1="0"
       y1="0"
       x2="1"
       y2="0"
       gradientUnits="userSpaceOnUse"
       gradientTransform="matrix(96.341118,-125.064,-125.064,-96.341118,52.088867,121.21777)"
       spreadMethod="pad"
       id="linearGradient980"><stop
         style="stop-opacity:1;stop-color:#27a9e0"
         offset="0"
         id="stop976" /><stop
         style="stop-opacity:1;stop-color:#1ca258"
         offset="1"
         id="stop978" /></linearGradient><clipPath
       clipPathUnits="userSpaceOnUse"
       id="clipPath990"><path
         d="m 125.237,110.391 c 1.584,-1.614 3.47,-2.4 5.759,-2.4 v 0 h 14.383 c 1.409,0 2.675,-0.532 3.656,-1.545 v 0 c 0.99,-1.007 1.52,-2.29 1.52,-3.714 v 0 c 0,-1.42 -0.52,-2.703 -1.52,-3.712 v 0 c -0.981,-1.017 -2.247,-1.55 -3.656,-1.55 v 0 l -20.146,-0.11 0.082,-70.312 c -0.561,-0.406 -0.945,-1.045 -0.945,-1.796 v 0 c 0,-1.247 0.991,-2.254 2.211,-2.254 v 0 c 1.224,0 2.211,1.007 2.211,2.254 v 0 c 0,0.627 -0.256,1.194 -0.662,1.6 v 0 l -0.089,64.661 h 0.182 v 2.966 h 17.156 c 1.133,0 2.188,0.214 3.147,0.638 v 0 c 0.996,0.434 1.868,1.037 2.591,1.773 v 0 c 0.733,0.747 1.312,1.631 1.743,2.629 v 0 c 0.418,0.988 0.636,2.066 0.636,3.213 v 0 c 0,2.262 -0.787,4.166 -2.403,5.821 v 0 c -0.772,0.783 -1.653,1.397 -2.62,1.819 v 0 c -0.946,0.415 -1.985,0.616 -3.094,0.616 v 0 l -20.684,0.01 c 0.175,-0.217 0.353,-0.419 0.542,-0.607 m -0.088,-85.237 c 0,0.804 0.642,1.461 1.432,1.461 v 0 c 0.789,0 1.437,-0.657 1.437,-1.461 v 0 c 0,-0.805 -0.648,-1.458 -1.437,-1.458 v 0 c -0.79,0 -1.432,0.653 -1.432,1.458"
         id="path988"
         inkscape:connector-curvature="0" /></clipPath><linearGradient
       x1="0"
       y1="0"
       x2="1"
       y2="0"
       gradientUnits="userSpaceOnUse"
       gradientTransform="matrix(96.346291,-125.07072,-125.07072,-96.346291,79.414551,142.27148)"
       spreadMethod="pad"
       id="linearGradient1000"><stop
         style="stop-opacity:1;stop-color:#27a9e0"
         offset="0"
         id="stop996" /><stop
         style="stop-opacity:1;stop-color:#1ca258"
         offset="1"
         id="stop998" /></linearGradient><clipPath
       clipPathUnits="userSpaceOnUse"
       id="clipPath1010"><path
         d="m 153.646,76.785 0.028,-27.742 c -0.485,-0.416 -0.805,-1.009 -0.805,-1.704 v 0 c 0,-1.244 0.985,-2.25 2.209,-2.25 v 0 c 1.217,0 2.212,1.006 2.212,2.25 v 0 c 0,0.695 -0.322,1.288 -0.805,1.704 v 0 l -0.027,27.742 z m 0,-29.486 c 0,0.81 0.64,1.459 1.432,1.459 v 0 c 0.792,0 1.437,-0.649 1.437,-1.459 v 0 c 0,-0.8 -0.645,-1.457 -1.437,-1.457 v 0 c -0.792,0 -1.432,0.657 -1.432,1.457"
         id="path1008"
         inkscape:connector-curvature="0" /></clipPath><linearGradient
       x1="0"
       y1="0"
       x2="1"
       y2="0"
       gradientUnits="userSpaceOnUse"
       gradientTransform="matrix(96.346374,-125.07082,-125.07082,-96.346374,87.67334,148.63428)"
       spreadMethod="pad"
       id="linearGradient1020"><stop
         style="stop-opacity:1;stop-color:#27a9e0"
         offset="0"
         id="stop1016" /><stop
         style="stop-opacity:1;stop-color:#1ca258"
         offset="1"
         id="stop1018" /></linearGradient><clipPath
       clipPathUnits="userSpaceOnUse"
       id="clipPath1030"><path
         d="m 139.76,87.223 -0.028,-50.598 c -0.481,-0.411 -0.802,-1.011 -0.802,-1.697 v 0 c 0,-1.248 0.996,-2.254 2.214,-2.254 v 0 c 1.217,0 2.212,1.006 2.212,2.254 v 0 c 0,0.696 -0.324,1.293 -0.817,1.71 v 0 l 0.035,47.669 h 0.222 l 24.474,-0.147 0.271,-23.543 c -0.472,-0.416 -0.798,-1.006 -0.798,-1.7 v 0 c 0,-1.241 0.993,-2.25 2.211,-2.25 v 0 c 1.223,0 2.219,1.009 2.219,2.25 v 0 c 0,0.684 -0.313,1.277 -0.79,1.683 v 0 l -0.039,26.623 z m 27.8,-28.418 c 0,0.806 0.639,1.458 1.437,1.458 v 0 c 0.794,0 1.438,-0.652 1.438,-1.458 v 0 c 0,-0.806 -0.644,-1.461 -1.438,-1.461 v 0 c -0.798,0 -1.437,0.655 -1.437,1.461 M 139.675,34.852 c 0,0.805 0.641,1.46 1.431,1.46 v 0 c 0.794,0 1.433,-0.655 1.433,-1.46 v 0 c 0,-0.809 -0.639,-1.459 -1.433,-1.459 v 0 c -0.79,0 -1.431,0.65 -1.431,1.459"
         id="path1028"
         inkscape:connector-curvature="0" /></clipPath><linearGradient
       x1="0"
       y1="0"
       x2="1"
       y2="0"
       gradientUnits="userSpaceOnUse"
       gradientTransform="matrix(96.341835,-125.06493,-125.06493,-96.341835,87.182617,148.25146)"
       spreadMethod="pad"
       id="linearGradient1040"><stop
         style="stop-opacity:1;stop-color:#27a9e0"
         offset="0"
         id="stop1036" /><stop
         style="stop-opacity:1;stop-color:#1ca258"
         offset="1"
         id="stop1038" /></linearGradient><clipPath
       clipPathUnits="userSpaceOnUse"
       id="clipPath1050"><path
         d="m 160.314,110.998 v -8.266 c 0,-1.231 0.206,-2.364 0.61,-3.373 v 0 c 0.398,-0.999 0.945,-1.867 1.657,-2.587 v 0 c 0.705,-0.726 1.538,-1.274 2.54,-1.68 v 0 c 0.976,-0.409 2.091,-0.613 3.315,-0.613 v 0 l 12.761,0.027 0.053,-23.575 c -0.492,-0.414 -0.834,-1.019 -0.834,-1.727 v 0 c 0,-1.24 0.997,-2.247 2.216,-2.247 v 0 c 1.224,0 2.212,1.007 2.212,2.247 v 0 c 0,0.682 -0.312,1.27 -0.775,1.684 v 0 l -0.066,26.616 h -2.811 V 97.498 L 168.436,97.47 c -3.237,0 -5.171,1.97 -5.171,5.262 v 0 5.259 l 20.738,0.032 v 2.994 z M 181.201,69.13 c 0,0.811 0.64,1.463 1.431,1.463 v 0 c 0.793,0 1.437,-0.652 1.437,-1.463 v 0 c 0,-0.801 -0.644,-1.454 -1.437,-1.454 v 0 c -0.791,0 -1.431,0.653 -1.431,1.454"
         id="path1048"
         inkscape:connector-curvature="0" /></clipPath><linearGradient
       x1="0"
       y1="0"
       x2="1"
       y2="0"
       gradientUnits="userSpaceOnUse"
       gradientTransform="matrix(96.34536,-125.0695,-125.0695,-96.34536,118.52393,172.39746)"
       spreadMethod="pad"
       id="linearGradient1060"><stop
         style="stop-opacity:1;stop-color:#27a9e0"
         offset="0"
         id="stop1056" /><stop
         style="stop-opacity:1;stop-color:#1ca258"
         offset="1"
         id="stop1058" /></linearGradient><clipPath
       clipPathUnits="userSpaceOnUse"
       id="clipPath1070"><path
         d="m 123.765,195.553 c 0,-0.69 0.326,-1.286 0.805,-1.702 v 0 -53.813 h 2.812 v 53.813 c 0.481,0.416 0.808,1.012 0.808,1.702 v 0 c 0,1.246 -0.993,2.254 -2.217,2.254 v 0 c -1.219,0 -2.208,-1.008 -2.208,-2.254 m 0.779,0.064 c 0,0.803 0.638,1.46 1.433,1.46 v 0 c 0.794,0 1.433,-0.657 1.433,-1.46 v 0 c 0,-0.806 -0.639,-1.462 -1.433,-1.462 v 0 c -0.795,0 -1.433,0.656 -1.433,1.462"
         id="path1068"
         inkscape:connector-curvature="0" /></clipPath><linearGradient
       x1="0"
       y1="0"
       x2="1"
       y2="0"
       gradientUnits="userSpaceOnUse"
       gradientTransform="matrix(96.344574,-125.06849,-125.06849,-96.344574,121.41943,174.62354)"
       spreadMethod="pad"
       id="linearGradient1080"><stop
         style="stop-opacity:1;stop-color:#27a9e0"
         offset="0"
         id="stop1076" /><stop
         style="stop-opacity:1;stop-color:#1ca258"
         offset="1"
         id="stop1078" /></linearGradient><clipPath
       clipPathUnits="userSpaceOnUse"
       id="clipPath1090"><path
         d="m 136.669,185.891 c 0,-0.713 0.344,-1.321 0.847,-1.733 v 0 l -0.103,-50.103 h -0.224 l -24.026,0.013 0.026,49.819 c 0.488,0.414 0.811,1.009 0.811,1.706 v 0 c 0,1.242 -0.989,2.253 -2.213,2.253 v 0 c -1.22,0 -2.211,-1.011 -2.211,-2.253 v 0 c 0,-0.692 0.321,-1.286 0.805,-1.7 v 0 l -0.029,-52.694 h 29.868 l 0.112,53.019 c 0.457,0.417 0.759,1.001 0.759,1.673 v 0 c 0,1.242 -0.994,2.251 -2.215,2.251 v 0 c -1.219,0 -2.207,-1.009 -2.207,-2.251 m 0.674,0.08 c 0,0.807 0.639,1.461 1.432,1.461 v 0 c 0.79,0 1.429,-0.654 1.429,-1.461 v 0 c 0,-0.804 -0.639,-1.459 -1.429,-1.459 v 0 c -0.793,0 -1.432,0.655 -1.432,1.459 m -27.016,-0.327 c 0,0.806 0.639,1.459 1.433,1.459 v 0 c 0.791,0 1.434,-0.653 1.434,-1.459 v 0 c 0,-0.811 -0.643,-1.461 -1.434,-1.461 v 0 c -0.794,0 -1.433,0.65 -1.433,1.461"
         id="path1088"
         inkscape:connector-curvature="0" /></clipPath><linearGradient
       x1="0"
       y1="0"
       x2="1"
       y2="0"
       gradientUnits="userSpaceOnUse"
       gradientTransform="matrix(96.343727,-125.06739,-125.06739,-96.343727,116.53125,170.86279)"
       spreadMethod="pad"
       id="linearGradient1100"><stop
         style="stop-opacity:1;stop-color:#27a9e0"
         offset="0"
         id="stop1096" /><stop
         style="stop-opacity:1;stop-color:#1ca258"
         offset="1"
         id="stop1098" /></linearGradient><clipPath
       clipPathUnits="userSpaceOnUse"
       id="clipPath1110"><path
         d="m 150.695,174.865 c 0,-0.704 0.338,-1.31 0.84,-1.722 v 0 -48.628 h -19.943 c -1.139,0 -2.201,-0.222 -3.16,-0.646 v 0 c -0.984,-0.434 -1.851,-1.04 -2.579,-1.779 v 0 c -0.179,-0.179 -0.352,-0.371 -0.518,-0.577 v 0 h 29.017 v 51.673 c 0.459,0.417 0.764,1.004 0.764,1.679 v 0 c 0,1.244 -0.989,2.255 -2.209,2.255 v 0 c -1.224,0 -2.212,-1.011 -2.212,-2.255 m 0.728,0.053 c 0,0.805 0.639,1.46 1.437,1.46 v 0 c 0.786,0 1.429,-0.655 1.429,-1.46 v 0 c 0,-0.806 -0.643,-1.459 -1.429,-1.459 v 0 c -0.798,0 -1.437,0.653 -1.437,1.459"
         id="path1108"
         inkscape:connector-curvature="0" /></clipPath><linearGradient
       x1="0"
       y1="0"
       x2="1"
       y2="0"
       gradientUnits="userSpaceOnUse"
       gradientTransform="matrix(96.336334,-125.05779,-125.05779,-96.336334,120.63086,174.01611)"
       spreadMethod="pad"
       id="linearGradient1120"><stop
         style="stop-opacity:1;stop-color:#27a9e0"
         offset="0"
         id="stop1116" /><stop
         style="stop-opacity:1;stop-color:#1ca258"
         offset="1"
         id="stop1118" /></linearGradient><clipPath
       clipPathUnits="userSpaceOnUse"
       id="clipPath1130"><path
         d="m 165.875,162.378 c 0,-0.697 0.325,-1.289 0.806,-1.705 v 0 -29.474 h 2.816 l -0.005,29.474 c 0.486,0.413 0.814,1.008 0.814,1.705 v 0 c 0,1.24 -0.995,2.249 -2.219,2.249 v 0 c -1.22,0 -2.212,-1.009 -2.212,-2.249 m 0.779,0.1 c 0,0.807 0.643,1.46 1.433,1.46 v 0 c 0.798,0 1.436,-0.653 1.436,-1.46 v 0 c 0,-0.806 -0.638,-1.462 -1.436,-1.462 v 0 c -0.79,0 -1.433,0.656 -1.433,1.462"
         id="path1128"
         inkscape:connector-curvature="0" /></clipPath><linearGradient
       x1="0"
       y1="0"
       x2="1"
       y2="0"
       gradientUnits="userSpaceOnUse"
       gradientTransform="matrix(96.345215,-125.06932,-125.06932,-96.345215,137.68945,187.16309)"
       spreadMethod="pad"
       id="linearGradient1140"><stop
         style="stop-opacity:1;stop-color:#27a9e0"
         offset="0"
         id="stop1136" /><stop
         style="stop-opacity:1;stop-color:#1ca258"
         offset="1"
         id="stop1138" /></linearGradient><clipPath
       clipPathUnits="userSpaceOnUse"
       id="clipPath1150"><path
         d="m 113.426,87.223 h -2.808 -23.119 -1.003 -1.81 l 0.036,-26.658 c -0.487,-0.41 -0.81,-1.008 -0.81,-1.702 v 0 c 0,-1.247 0.989,-2.248 2.209,-2.248 v 0 c 1.224,0 2.219,1.001 2.219,2.248 v 0 c 0,0.688 -0.325,1.288 -0.806,1.699 v 0 l -0.035,23.812 h 23.119 l 0.059,-47.739 c -0.489,-0.414 -0.814,-1.016 -0.814,-1.707 v 0 c 0,-1.248 0.995,-2.254 2.211,-2.254 v 0 c 1.223,0 2.215,1.006 2.215,2.254 v 0 c 0,0.691 -0.325,1.289 -0.805,1.702 v 0 l -0.058,47.744 h 0.065 v 2.849 z m -28.74,-28.36 c 0,0.805 0.644,1.459 1.438,1.459 v 0 c 0.794,0 1.434,-0.654 1.434,-1.459 v 0 c 0,-0.807 -0.64,-1.46 -1.434,-1.46 v 0 c -0.794,0 -1.438,0.653 -1.438,1.46 m 25.96,-24.011 c 0,0.805 0.642,1.46 1.428,1.46 v 0 c 0.795,0 1.433,-0.655 1.433,-1.46 v 0 c 0,-0.809 -0.638,-1.459 -1.433,-1.459 v 0 c -0.786,0 -1.428,0.65 -1.428,1.459"
         id="path1148"
         inkscape:connector-curvature="0" /></clipPath><linearGradient
       x1="0"
       y1="0"
       x2="1"
       y2="0"
       gradientUnits="userSpaceOnUse"
       gradientTransform="matrix(96.341896,-125.06501,-125.06501,-96.341896,57.863281,125.66699)"
       spreadMethod="pad"
       id="linearGradient1160"><stop
         style="stop-opacity:1;stop-color:#27a9e0"
         offset="0"
         id="stop1156" /><stop
         style="stop-opacity:1;stop-color:#1ca258"
         offset="1"
         id="stop1158" /></linearGradient><clipPath
       clipPathUnits="userSpaceOnUse"
       id="clipPath1170"><path
         d="m 96.705,173.555 c 0,-0.696 0.325,-1.291 0.804,-1.705 v 0 -37.434 H 87.116 l 0.003,26.99 c 0.48,0.418 0.806,1.01 0.806,1.701 v 0 c 0,1.243 -0.996,2.254 -2.215,2.254 v 0 c -1.219,0 -2.212,-1.011 -2.212,-2.254 v 0 c 0,-0.691 0.325,-1.291 0.811,-1.703 v 0 -26.988 -3.217 h 15.993 0.019 v 40.651 c 0.481,0.415 0.806,1.009 0.806,1.705 v 0 c 0,1.242 -0.991,2.25 -2.212,2.25 v 0 c -1.22,0 -2.21,-1.008 -2.21,-2.25 m 0.778,0.058 c 0,0.808 0.638,1.459 1.436,1.459 v 0 c 0.787,0 1.429,-0.651 1.429,-1.459 v 0 c 0,-0.805 -0.642,-1.458 -1.429,-1.458 v 0 c -0.798,0 -1.436,0.653 -1.436,1.458 M 84.281,163.107 c 0,0.806 0.64,1.46 1.429,1.46 v 0 c 0.798,0 1.437,-0.654 1.437,-1.46 v 0 c 0,-0.806 -0.639,-1.461 -1.437,-1.461 v 0 c -0.789,0 -1.429,0.655 -1.429,1.461"
         id="path1168"
         inkscape:connector-curvature="0" /></clipPath><linearGradient
       x1="0"
       y1="0"
       x2="1"
       y2="0"
       gradientUnits="userSpaceOnUse"
       gradientTransform="matrix(96.347054,-125.07171,-125.07171,-96.347054,92.837891,152.60937)"
       spreadMethod="pad"
       id="linearGradient1180"><stop
         style="stop-opacity:1;stop-color:#27a9e0"
         offset="0"
         id="stop1176" /><stop
         style="stop-opacity:1;stop-color:#1ca258"
         offset="1"
         id="stop1178" /></linearGradient></defs><sodipodi:namedview
     pagecolor="#ffffff"
     bordercolor="#666666"
     borderopacity="1"
     objecttolerance="10"
     gridtolerance="10"
     guidetolerance="10"
     inkscape:pageopacity="0"
     inkscape:pageshadow="2"
     inkscape:window-width="1914"
     inkscape:window-height="1042"
     id="namedview836"
     showgrid="false"
     inkscape:zoom="2.9849503"
     inkscape:cx="168"
     inkscape:cy="144.056"
     inkscape:window-x="2"
     inkscape:window-y="34"
     inkscape:window-maximized="1"
     inkscape:current-layer="g842" /><g
     id="g842"
     inkscape:groupmode="layer"
     inkscape:label="logo (1)"
     transform="matrix(1.3333333,0,0,-1.3333333,0,288.112)"><g
       id="g844"><g
         id="g846"
         clip-path="url(#clipPath850)"><g
           id="g852"><g
             id="g854"><path
               d="m 110.212,94.104 h 2.947 v 30.783 h -2.947 z"
               style="fill:url(#linearGradient860);stroke:none"
               id="path862"
               inkscape:connector-curvature="0" /></g></g></g></g><g
       id="g864"><g
         id="g866"
         clip-path="url(#clipPath870)"><g
           id="g872"><g
             id="g874"><path
               d="m 180.328,152.514 c 0,-0.692 0.323,-1.286 0.81,-1.7 v 0 -26.275 l -12.702,-0.024 c -1.22,0 -2.336,-0.212 -3.315,-0.619 v 0 c -1,-0.409 -1.828,-0.957 -2.54,-1.686 v 0 c -0.222,-0.215 -0.419,-0.445 -0.609,-0.697 v 0 l 22.031,0.03 v 3.003 h -0.054 v 26.268 c 0.481,0.414 0.805,1.013 0.805,1.7 v 0 c 0,1.248 -0.994,2.253 -2.215,2.253 v 0 c -1.22,0 -2.211,-1.005 -2.211,-2.253 m 0.783,0.102 c 0,0.803 0.639,1.459 1.428,1.459 v 0 c 0.793,0 1.436,-0.656 1.436,-1.459 v 0 c 0,-0.806 -0.643,-1.462 -1.436,-1.462 v 0 c -0.789,0 -1.428,0.656 -1.428,1.462"
               style="fill:url(#linearGradient880);stroke:none"
               id="path882"
               inkscape:connector-curvature="0" /></g></g></g></g><g
       id="g884"><g
         id="g886"
         clip-path="url(#clipPath890)"><g
           id="g892"><g
             id="g894"><path
               d="m 39.436,124.515 v -3.002 h 18.078 c 1.402,0 2.669,-0.531 3.653,-1.538 v 0 c 0.993,-1.014 1.518,-2.307 1.518,-3.722 v 0 c 0,-1.424 -0.525,-2.709 -1.512,-3.721 v 0 c -0.99,-1.008 -2.257,-1.544 -3.659,-1.544 v 0 l -18.078,0.01 V 94.479 h 2.949 v 13.512 h 15.129 c 1.511,0 2.757,-0.494 3.722,-1.457 v 0 c 0.949,-0.968 1.449,-2.279 1.449,-3.802 v 0 -8.253 h 2.942 v 8.253 c 0,1.031 -0.179,2.038 -0.527,2.992 v 0 c -0.337,0.941 -0.852,1.804 -1.514,2.56 v 0 l -1.104,1.26 1.108,1.257 c 1.367,1.554 2.037,3.336 2.037,5.452 v 0 c 0,1.118 -0.212,2.194 -0.632,3.193 v 0 c -0.429,1.011 -1.014,1.902 -1.747,2.644 v 0 c -0.717,0.737 -1.594,1.335 -2.598,1.777 v 0 c -0.978,0.426 -2.032,0.648 -3.136,0.648 v 0 z"
               style="fill:url(#linearGradient900);stroke:none"
               id="path902"
               inkscape:connector-curvature="0" /></g></g></g></g><g
       id="g904"><g
         id="g906"
         clip-path="url(#clipPath910)"><g
           id="g912"><g
             id="g914"><path
               d="m 191.11,111.027 v -8.263 c 0,-1.224 0.2,-2.363 0.603,-3.381 v 0 c 0.391,-1 0.949,-1.861 1.641,-2.579 v 0 c 0.725,-0.727 1.557,-1.277 2.549,-1.684 v 0 c 0.996,-0.406 2.108,-0.609 3.318,-0.609 v 0 h 18.075 v 2.993 h -18.075 c -3.237,0 -5.168,1.968 -5.168,5.26 v 0 8.263 z"
               style="fill:url(#linearGradient920);stroke:none"
               id="path922"
               inkscape:connector-curvature="0" /></g></g></g></g><g
       id="g924"><g
         id="g926"
         clip-path="url(#clipPath930)"><g
           id="g932"><g
             id="g934"><path
               d="m 199.221,124.546 c -1.21,0 -2.322,-0.213 -3.318,-0.62 v 0 c -0.984,-0.401 -1.819,-0.948 -2.551,-1.687 v 0 c -0.206,-0.212 -0.404,-0.442 -0.592,-0.696 v 0 h 24.536 v 3.003 z"
               style="fill:url(#linearGradient940);stroke:none"
               id="path942"
               inkscape:connector-curvature="0" /></g></g></g></g><g
       id="g944"><g
         id="g946"
         clip-path="url(#clipPath950)"><g
           id="g952"><g
             id="g954"><path
               d="m 71.78,151.413 c 0,-0.694 0.325,-1.29 0.806,-1.701 v 0 l 0.004,-28.199 h 0.14 2.666 15.41 c 1.402,0 2.668,-0.531 3.652,-1.538 v 0 c 0.992,-1.014 1.514,-2.307 1.514,-3.722 v 0 c 0,-1.424 -0.517,-2.709 -1.503,-3.721 v 0 c -1.002,-1.008 -2.266,-1.544 -3.663,-1.544 v 0 l -18.076,0.01 v -40.1 c -0.563,-0.414 -0.95,-1.044 -0.95,-1.799 v 0 c 0,-1.241 0.991,-2.25 2.213,-2.25 v 0 c 1.218,0 2.214,1.009 2.214,2.25 v 0 c 0,0.629 -0.256,1.193 -0.663,1.6 v 0 l 0.137,37.292 h 15.125 c 1.131,0 2.188,0.217 3.149,0.64 v 0 c 0.987,0.434 1.851,1.034 2.587,1.781 v 0 c 0.733,0.748 1.32,1.633 1.746,2.631 v 0 c 0.414,0.975 0.631,2.058 0.631,3.21 v 0 c 0,1.121 -0.217,2.199 -0.631,3.193 v 0 c -0.431,1.017 -1.019,1.902 -1.746,2.644 v 0 c -0.724,0.739 -1.597,1.335 -2.603,1.777 v 0 c -0.98,0.426 -2.032,0.648 -3.133,0.648 v 0 h -15.41 v 25.197 c 0.486,0.411 0.811,1.007 0.811,1.701 v 0 c 0,1.245 -0.996,2.251 -2.214,2.251 v 0 c -1.222,0 -2.213,-1.006 -2.213,-2.251 m 0.778,0 c 0,0.807 0.644,1.459 1.435,1.459 v 0 c 0.793,0 1.436,-0.652 1.436,-1.459 v 0 c 0,-0.806 -0.643,-1.462 -1.436,-1.462 v 0 c -0.791,0 -1.435,0.656 -1.435,1.462 m 0.024,-82.328 c 0,0.801 0.644,1.456 1.437,1.456 v 0 c 0.789,0 1.429,-0.655 1.429,-1.456 v 0 c 0,-0.808 -0.64,-1.461 -1.429,-1.461 v 0 c -0.793,0 -1.437,0.653 -1.437,1.461"
               style="fill:url(#linearGradient960);stroke:none"
               id="path962"
               inkscape:connector-curvature="0" /></g></g></g></g><g
       id="g964"><g
         id="g966"
         clip-path="url(#clipPath970)"><g
           id="g972"><g
             id="g974"><path
               d="M 96.777,76.785 V 49.507 c -0.478,-0.414 -0.805,-1.012 -0.805,-1.705 v 0 c 0,-1.245 0.988,-2.249 2.208,-2.249 v 0 c 1.227,0 2.214,1.004 2.214,2.249 v 0 c 0,0.691 -0.325,1.287 -0.805,1.698 v 0 27.285 z M 96.751,47.802 c 0,0.806 0.638,1.459 1.432,1.459 v 0 c 0.795,0 1.434,-0.653 1.434,-1.459 v 0 c 0,-0.806 -0.639,-1.458 -1.434,-1.458 v 0 c -0.794,0 -1.432,0.652 -1.432,1.458"
               style="fill:url(#linearGradient980);stroke:none"
               id="path982"
               inkscape:connector-curvature="0" /></g></g></g></g><g
       id="g984"><g
         id="g986"
         clip-path="url(#clipPath990)"><g
           id="g992"><g
             id="g994"><path
               d="m 125.237,110.391 c 1.584,-1.614 3.47,-2.4 5.759,-2.4 v 0 h 14.383 c 1.409,0 2.675,-0.532 3.656,-1.545 v 0 c 0.99,-1.007 1.52,-2.29 1.52,-3.714 v 0 c 0,-1.42 -0.52,-2.703 -1.52,-3.712 v 0 c -0.981,-1.017 -2.247,-1.55 -3.656,-1.55 v 0 l -20.146,-0.11 0.082,-70.312 c -0.561,-0.406 -0.945,-1.045 -0.945,-1.796 v 0 c 0,-1.247 0.991,-2.254 2.211,-2.254 v 0 c 1.224,0 2.211,1.007 2.211,2.254 v 0 c 0,0.627 -0.256,1.194 -0.662,1.6 v 0 l -0.089,64.661 h 0.182 v 2.966 h 17.156 c 1.133,0 2.188,0.214 3.147,0.638 v 0 c 0.996,0.434 1.868,1.037 2.591,1.773 v 0 c 0.733,0.747 1.312,1.631 1.743,2.629 v 0 c 0.418,0.988 0.636,2.066 0.636,3.213 v 0 c 0,2.262 -0.787,4.166 -2.403,5.821 v 0 c -0.772,0.783 -1.653,1.397 -2.62,1.819 v 0 c -0.946,0.415 -1.985,0.616 -3.094,0.616 v 0 l -20.684,0.01 c 0.175,-0.217 0.353,-0.419 0.542,-0.607 m -0.088,-85.237 c 0,0.804 0.642,1.461 1.432,1.461 v 0 c 0.789,0 1.437,-0.657 1.437,-1.461 v 0 c 0,-0.805 -0.648,-1.458 -1.437,-1.458 v 0 c -0.79,0 -1.432,0.653 -1.432,1.458"
               style="fill:url(#linearGradient1000);stroke:none"
               id="path1002"
               inkscape:connector-curvature="0" /></g></g></g></g><g
       id="g1004"><g
         id="g1006"
         clip-path="url(#clipPath1010)"><g
           id="g1012"><g
             id="g1014"><path
               d="m 153.646,76.785 0.028,-27.742 c -0.485,-0.416 -0.805,-1.009 -0.805,-1.704 v 0 c 0,-1.244 0.985,-2.25 2.209,-2.25 v 0 c 1.217,0 2.212,1.006 2.212,2.25 v 0 c 0,0.695 -0.322,1.288 -0.805,1.704 v 0 l -0.027,27.742 z m 0,-29.486 c 0,0.81 0.64,1.459 1.432,1.459 v 0 c 0.792,0 1.437,-0.649 1.437,-1.459 v 0 c 0,-0.8 -0.645,-1.457 -1.437,-1.457 v 0 c -0.792,0 -1.432,0.657 -1.432,1.457"
               style="fill:url(#linearGradient1020);stroke:none"
               id="path1022"
               inkscape:connector-curvature="0" /></g></g></g></g><g
       id="g1024"><g
         id="g1026"
         clip-path="url(#clipPath1030)"><g
           id="g1032"><g
             id="g1034"><path
               d="m 139.76,87.223 -0.028,-50.598 c -0.481,-0.411 -0.802,-1.011 -0.802,-1.697 v 0 c 0,-1.248 0.996,-2.254 2.214,-2.254 v 0 c 1.217,0 2.212,1.006 2.212,2.254 v 0 c 0,0.696 -0.324,1.293 -0.817,1.71 v 0 l 0.035,47.669 h 0.222 l 24.474,-0.147 0.271,-23.543 c -0.472,-0.416 -0.798,-1.006 -0.798,-1.7 v 0 c 0,-1.241 0.993,-2.25 2.211,-2.25 v 0 c 1.223,0 2.219,1.009 2.219,2.25 v 0 c 0,0.684 -0.313,1.277 -0.79,1.683 v 0 l -0.039,26.623 z m 27.8,-28.418 c 0,0.806 0.639,1.458 1.437,1.458 v 0 c 0.794,0 1.438,-0.652 1.438,-1.458 v 0 c 0,-0.806 -0.644,-1.461 -1.438,-1.461 v 0 c -0.798,0 -1.437,0.655 -1.437,1.461 M 139.675,34.852 c 0,0.805 0.641,1.46 1.431,1.46 v 0 c 0.794,0 1.433,-0.655 1.433,-1.46 v 0 c 0,-0.809 -0.639,-1.459 -1.433,-1.459 v 0 c -0.79,0 -1.431,0.65 -1.431,1.459"
               style="fill:url(#linearGradient1040);stroke:none"
               id="path1042"
               inkscape:connector-curvature="0" /></g></g></g></g><g
       id="g1044"><g
         id="g1046"
         clip-path="url(#clipPath1050)"><g
           id="g1052"><g
             id="g1054"><path
               d="m 160.314,110.998 v -8.266 c 0,-1.231 0.206,-2.364 0.61,-3.373 v 0 c 0.398,-0.999 0.945,-1.867 1.657,-2.587 v 0 c 0.705,-0.726 1.538,-1.274 2.54,-1.68 v 0 c 0.976,-0.409 2.091,-0.613 3.315,-0.613 v 0 l 12.761,0.027 0.053,-23.575 c -0.492,-0.414 -0.834,-1.019 -0.834,-1.727 v 0 c 0,-1.24 0.997,-2.247 2.216,-2.247 v 0 c 1.224,0 2.212,1.007 2.212,2.247 v 0 c 0,0.682 -0.312,1.27 -0.775,1.684 v 0 l -0.066,26.616 h -2.811 V 97.498 L 168.436,97.47 c -3.237,0 -5.171,1.97 -5.171,5.262 v 0 5.259 l 20.738,0.032 v 2.994 z M 181.201,69.13 c 0,0.811 0.64,1.463 1.431,1.463 v 0 c 0.793,0 1.437,-0.652 1.437,-1.463 v 0 c 0,-0.801 -0.644,-1.454 -1.437,-1.454 v 0 c -0.791,0 -1.431,0.653 -1.431,1.454"
               style="fill:url(#linearGradient1060);stroke:none"
               id="path1062"
               inkscape:connector-curvature="0" /></g></g></g></g><g
       id="g1064"><g
         id="g1066"
         clip-path="url(#clipPath1070)"><g
           id="g1072"><g
             id="g1074"><path
               d="m 123.765,195.553 c 0,-0.69 0.326,-1.286 0.805,-1.702 v 0 -53.813 h 2.812 v 53.813 c 0.481,0.416 0.808,1.012 0.808,1.702 v 0 c 0,1.246 -0.993,2.254 -2.217,2.254 v 0 c -1.219,0 -2.208,-1.008 -2.208,-2.254 m 0.779,0.064 c 0,0.803 0.638,1.46 1.433,1.46 v 0 c 0.794,0 1.433,-0.657 1.433,-1.46 v 0 c 0,-0.806 -0.639,-1.462 -1.433,-1.462 v 0 c -0.795,0 -1.433,0.656 -1.433,1.462"
               style="fill:url(#linearGradient1080);stroke:none"
               id="path1082"
               inkscape:connector-curvature="0" /></g></g></g></g><g
       id="g1084"><g
         id="g1086"
         clip-path="url(#clipPath1090)"><g
           id="g1092"><g
             id="g1094"><path
               d="m 136.669,185.891 c 0,-0.713 0.344,-1.321 0.847,-1.733 v 0 l -0.103,-50.103 h -0.224 l -24.026,0.013 0.026,49.819 c 0.488,0.414 0.811,1.009 0.811,1.706 v 0 c 0,1.242 -0.989,2.253 -2.213,2.253 v 0 c -1.22,0 -2.211,-1.011 -2.211,-2.253 v 0 c 0,-0.692 0.321,-1.286 0.805,-1.7 v 0 l -0.029,-52.694 h 29.868 l 0.112,53.019 c 0.457,0.417 0.759,1.001 0.759,1.673 v 0 c 0,1.242 -0.994,2.251 -2.215,2.251 v 0 c -1.219,0 -2.207,-1.009 -2.207,-2.251 m 0.674,0.08 c 0,0.807 0.639,1.461 1.432,1.461 v 0 c 0.79,0 1.429,-0.654 1.429,-1.461 v 0 c 0,-0.804 -0.639,-1.459 -1.429,-1.459 v 0 c -0.793,0 -1.432,0.655 -1.432,1.459 m -27.016,-0.327 c 0,0.806 0.639,1.459 1.433,1.459 v 0 c 0.791,0 1.434,-0.653 1.434,-1.459 v 0 c 0,-0.811 -0.643,-1.461 -1.434,-1.461 v 0 c -0.794,0 -1.433,0.65 -1.433,1.461"
               style="fill:url(#linearGradient1100);stroke:none"
               id="path1102"
               inkscape:connector-curvature="0" /></g></g></g></g><g
       id="g1104"><g
         id="g1106"
         clip-path="url(#clipPath1110)"><g
           id="g1112"><g
             id="g1114"><path
               d="m 150.695,174.865 c 0,-0.704 0.338,-1.31 0.84,-1.722 v 0 -48.628 h -19.943 c -1.139,0 -2.201,-0.222 -3.16,-0.646 v 0 c -0.984,-0.434 -1.851,-1.04 -2.579,-1.779 v 0 c -0.179,-0.179 -0.352,-0.371 -0.518,-0.577 v 0 h 29.017 v 51.673 c 0.459,0.417 0.764,1.004 0.764,1.679 v 0 c 0,1.244 -0.989,2.255 -2.209,2.255 v 0 c -1.224,0 -2.212,-1.011 -2.212,-2.255 m 0.728,0.053 c 0,0.805 0.639,1.46 1.437,1.46 v 0 c 0.786,0 1.429,-0.655 1.429,-1.46 v 0 c 0,-0.806 -0.643,-1.459 -1.429,-1.459 v 0 c -0.798,0 -1.437,0.653 -1.437,1.459"
               style="fill:url(#linearGradient1120);stroke:none"
               id="path1122"
               inkscape:connector-curvature="0" /></g></g></g></g><g
       id="g1124"><g
         id="g1126"
         clip-path="url(#clipPath1130)"><g
           id="g1132"><g
             id="g1134"><path
               d="m 165.875,162.378 c 0,-0.697 0.325,-1.289 0.806,-1.705 v 0 -29.474 h 2.816 l -0.005,29.474 c 0.486,0.413 0.814,1.008 0.814,1.705 v 0 c 0,1.24 -0.995,2.249 -2.219,2.249 v 0 c -1.22,0 -2.212,-1.009 -2.212,-2.249 m 0.779,0.1 c 0,0.807 0.643,1.46 1.433,1.46 v 0 c 0.798,0 1.436,-0.653 1.436,-1.46 v 0 c 0,-0.806 -0.638,-1.462 -1.436,-1.462 v 0 c -0.79,0 -1.433,0.656 -1.433,1.462"
               style="fill:url(#linearGradient1140);stroke:none"
               id="path1142"
               inkscape:connector-curvature="0" /></g></g></g></g><g
       id="g1144"><g
         id="g1146"
         clip-path="url(#clipPath1150)"><g
           id="g1152"><g
             id="g1154"><path
               d="m 113.426,87.223 h -2.808 -23.119 -1.003 -1.81 l 0.036,-26.658 c -0.487,-0.41 -0.81,-1.008 -0.81,-1.702 v 0 c 0,-1.247 0.989,-2.248 2.209,-2.248 v 0 c 1.224,0 2.219,1.001 2.219,2.248 v 0 c 0,0.688 -0.325,1.288 -0.806,1.699 v 0 l -0.035,23.812 h 23.119 l 0.059,-47.739 c -0.489,-0.414 -0.814,-1.016 -0.814,-1.707 v 0 c 0,-1.248 0.995,-2.254 2.211,-2.254 v 0 c 1.223,0 2.215,1.006 2.215,2.254 v 0 c 0,0.691 -0.325,1.289 -0.805,1.702 v 0 l -0.058,47.744 h 0.065 v 2.849 z m -28.74,-28.36 c 0,0.805 0.644,1.459 1.438,1.459 v 0 c 0.794,0 1.434,-0.654 1.434,-1.459 v 0 c 0,-0.807 -0.64,-1.46 -1.434,-1.46 v 0 c -0.794,0 -1.438,0.653 -1.438,1.46 m 25.96,-24.011 c 0,0.805 0.642,1.46 1.428,1.46 v 0 c 0.795,0 1.433,-0.655 1.433,-1.46 v 0 c 0,-0.809 -0.638,-1.459 -1.433,-1.459 v 0 c -0.786,0 -1.428,0.65 -1.428,1.459"
               style="fill:url(#linearGradient1160);stroke:none"
               id="path1162"
               inkscape:connector-curvature="0" /></g></g></g></g><g
       id="g1164"><g
         id="g1166"
         clip-path="url(#clipPath1170)"><g
           id="g1172"><g
             id="g1174"><path
               d="m 96.705,173.555 c 0,-0.696 0.325,-1.291 0.804,-1.705 v 0 -37.434 H 87.116 l 0.003,26.99 c 0.48,0.418 0.806,1.01 0.806,1.701 v 0 c 0,1.243 -0.996,2.254 -2.215,2.254 v 0 c -1.219,0 -2.212,-1.011 -2.212,-2.254 v 0 c 0,-0.691 0.325,-1.291 0.811,-1.703 v 0 -26.988 -3.217 h 15.993 0.019 v 40.651 c 0.481,0.415 0.806,1.009 0.806,1.705 v 0 c 0,1.242 -0.991,2.25 -2.212,2.25 v 0 c -1.22,0 -2.21,-1.008 -2.21,-2.25 m 0.778,0.058 c 0,0.808 0.638,1.459 1.436,1.459 v 0 c 0.787,0 1.429,-0.651 1.429,-1.459 v 0 c 0,-0.805 -0.642,-1.458 -1.429,-1.458 v 0 c -0.798,0 -1.436,0.653 -1.436,1.458 M 84.281,163.107 c 0,0.806 0.64,1.46 1.429,1.46 v 0 c 0.798,0 1.437,-0.654 1.437,-1.46 v 0 c 0,-0.806 -0.639,-1.461 -1.437,-1.461 v 0 c -0.789,0 -1.429,0.655 -1.429,1.461"
               style="fill:url(#linearGradient1180);stroke:none"
               id="path1182"
               inkscape:connector-curvature="0" /></g></g></g></g></g></svg>